<svg width="350" height="367" viewBox="0 0 350 367" fill="none" xmlns="http://www.w3.org/2000/svg">
<path d="M175 367C271.65 367 350 288.65 350 192C350 95.3502 271.65 17 175 17C78.3502 17 0 95.3502 0 192C0 288.65 78.3502 367 175 367Z" fill="#143D85"/>
<path fill-rule="evenodd" clip-rule="evenodd" d="M239.191 0.961479C242.804 0.228025 243.822 1.62925 246.219 1.9084C244.593 3.09069 241.566 2.85532 239.476 3.54499C238.972 2.99764 238.912 2.10545 239.191 0.961479Z" fill="#00783A"/>
<path fill-rule="evenodd" clip-rule="evenodd" d="M208.705 15.4279C207.583 17.3656 207.096 19.8889 204.326 20.1844C202.805 18.7613 205.766 18.3836 206.324 16.8565C204.419 17.9895 202.547 19.1609 199.493 19.139C199.926 18.0114 199.11 17.9239 198.24 17.8965C197.999 16.134 199.904 16.5117 200.145 15.209C203.226 15.3239 205.202 17.2616 208.705 15.4279Z" fill="#00783A"/>
<path fill-rule="evenodd" clip-rule="evenodd" d="M246.253 18.7562C245.47 20.1027 243.592 21.5203 242.383 20.2341C243.116 18.8766 244.999 17.459 246.253 18.7562Z" fill="#00783A"/>
<path fill-rule="evenodd" clip-rule="evenodd" d="M257.85 31.126C259.333 31.7554 261.298 32.0291 262.574 32.8282C261.167 34.3225 257.626 32.8501 257.85 31.126Z" fill="#00783A"/>
<path fill-rule="evenodd" clip-rule="evenodd" d="M49.0418 42.1177C51.3516 42.0903 54.6795 41.2036 53.8092 43.8254C51.4665 43.8473 48.1551 44.745 49.0418 42.1177Z" fill="#00783A"/>
<path fill-rule="evenodd" clip-rule="evenodd" d="M229.063 35.79C229.38 38.4173 225.116 39.4409 226.069 36.5892C226.78 36.0473 227.815 35.8065 229.063 35.79Z" fill="#00783A"/>
<path fill-rule="evenodd" clip-rule="evenodd" d="M234.154 35.5428C235.95 35.51 235.451 37.8855 234.34 38.7613C232.49 38.7886 232.988 36.4131 234.154 35.5428Z" fill="#00783A"/>
<path fill-rule="evenodd" clip-rule="evenodd" d="M85.6488 55.1875C84.5431 57.3933 82.9886 59.1503 79.918 59.3638C80.0931 56.2384 83.2842 56.118 85.6488 55.1875Z" fill="#00783A"/>
<path fill-rule="evenodd" clip-rule="evenodd" d="M224.57 62.5505C227.077 61.9867 227.055 63.5138 227.044 65.019C224.532 65.5883 224.57 64.0557 224.57 62.5505Z" fill="#00783A"/>
<path fill-rule="evenodd" clip-rule="evenodd" d="M276.849 67.717C280.243 67.6021 275.771 69.2605 275.727 70.3717C283.149 69.069 280.051 74.0499 282.684 75.8452C280.03 75.6372 279.531 75.1884 278.125 77.3614C276.548 77.3614 278.283 74.6137 278.059 73.4861C276.094 74.4495 271.945 75.9437 269.975 74.5261C270.478 70.4647 273.959 69.3864 276.849 67.7061" fill="#00783A"/>
<path fill-rule="evenodd" clip-rule="evenodd" d="M260.535 71.1324C261.531 69.7914 266.742 69.7147 265.39 72.1778C263.283 73.8472 261.942 71.7016 260.535 71.1324Z" fill="#00783A"/>
<path fill-rule="evenodd" clip-rule="evenodd" d="M232.215 77.0599C233.19 77.0544 234.159 76.9614 235.122 76.9121C235.27 79.4026 231.208 79.5996 232.215 77.0599Z" fill="#00783A"/>
<path fill-rule="evenodd" clip-rule="evenodd" d="M232.262 85.4727C231.638 88.4393 223.406 90.3058 219.58 92.5773C222.815 89.2166 228.42 88.2532 232.262 85.4727Z" fill="#00783A"/>
<path fill-rule="evenodd" clip-rule="evenodd" d="M227.015 142.699C225.219 143.181 223.555 143.805 221.136 143.635C220.162 140.121 215.542 139.629 211.946 138.271C210.069 138.518 212.767 139.35 211.53 140.882C210.501 139.853 210.069 138.326 207.605 138.49C214.639 133.416 224.519 138.611 227.015 142.699Z" fill="#00783A"/>
<path fill-rule="evenodd" clip-rule="evenodd" d="M238.909 144.697C236.671 146.262 232.932 146.344 229.254 146.481C229.643 142.08 237.103 143.7 238.909 144.697Z" fill="#00783A"/>
<path fill-rule="evenodd" clip-rule="evenodd" d="M218.492 146.361C220.205 146.06 221.256 146.328 222.017 146.837C221.951 148.512 216.718 149.339 218.492 146.361Z" fill="#00783A"/>
<path fill-rule="evenodd" clip-rule="evenodd" d="M251.888 153.115L254.05 153.006C253.552 154.538 252.759 155.748 251.954 156.996C249.053 156.06 253.355 155.195 251.888 153.115Z" fill="#00783A"/>
<path fill-rule="evenodd" clip-rule="evenodd" d="M198.572 309.176C199.289 309.133 200.023 309.089 200.74 309.062C201.107 310.249 201.583 311.399 201.561 312.92C199.952 312.149 198.917 310.95 198.572 309.176Z" fill="#00783A"/>
<path fill-rule="evenodd" clip-rule="evenodd" d="M228.186 10.5889C230.605 9.36279 227.529 4.21219 231.777 1.98994C233.244 1.90783 234.689 1.83668 236.117 1.771C235.926 2.86023 235.756 3.95494 235.575 5.03322C235.964 6.78476 238.991 6.33593 241.043 6.70265C248.438 -0.00790632 250.507 11.7438 257.464 7.18433C257.031 8.51987 255.313 8.56366 254.88 9.8992C258.526 10.0689 261.596 10.7148 263.841 12.0448C264.07 14.0317 261.662 13.3968 261.865 15.3782C264.738 18.0602 270.294 18.5529 273.928 20.6109C273.343 22.8386 270.737 22.9919 270.261 25.3236C266.512 25.4222 266.495 22.45 263.66 21.7768C262.582 22.4719 260.868 22.5267 260.458 23.8786C261.027 27.524 265.428 28.0276 265.565 32.0397C265.258 33.9718 260.639 35.4387 264.092 36.6429C261.799 37.5789 259.44 33.731 254.235 35.1815C253.413 29.489 244.032 30.4578 239.385 29.4507C240.616 27.119 244.59 27.5459 247.71 27.0916C248.487 26.5935 247.754 24.0592 249.806 23.1068C253.222 22.149 253.348 25.6137 256.205 23.4407C257.01 21.0707 254.388 21.5524 252.209 21.6783C251.646 11.7766 236.686 12.0284 221.317 12.8604C216.801 9.94299 218.881 1.74363 227.414 2.19793C228.728 3.18864 228.558 5.38901 227.879 7.99988C226.664 3.632 225.575 10.4247 228.17 10.5889H228.186ZM262.538 32.8224C261.263 32.0232 259.292 31.755 257.814 31.1201C257.59 32.8497 261.131 34.3221 262.538 32.8224Z" fill="#00783A"/>
<path fill-rule="evenodd" clip-rule="evenodd" d="M127.72 22.691C131.524 22.3954 137.036 19.3466 140.928 16.8507C148.569 18.1808 157.682 18.9033 165.635 19.5218C166.177 21.5853 163.216 20.1239 163.769 22.1983C167.972 24.2892 176.227 21.2678 177.349 26.7085C178.224 23.7364 180.397 22.1217 182.083 19.998C180.452 19.5327 178.602 21.0763 181.257 20.6822C180.337 22.6198 178.985 20.414 177.633 20.8628C185.395 16.6372 192.352 26.2378 201.536 19.686C203.353 19.4889 203.616 20.5946 204.952 20.8081C207.201 20.0199 207.957 17.7374 209.33 16.057C209.648 14.1085 206.079 15.3783 205.324 14.311C205.28 11.9902 206.687 11.1199 207.53 9.68036C214.651 8.66776 212.259 15.5152 214.705 18.3833C217.541 18.4107 217.404 15.4878 220.179 15.5152C221.865 16.7576 220.557 20.4523 222.018 21.9028C225.324 20.923 227.18 18.4654 227.546 14.5026C230.71 14.1687 232.183 15.1813 233.737 16.1446C231.537 18.9087 233.868 19.7845 233.398 22.6362C230.825 23.8897 228.471 25.3292 224.366 25.0282C222.286 29.8558 233.244 28.4929 232.987 33.6709C228.083 30.6057 225.932 36.2927 221.29 34.897C220.316 33.5614 223.682 31.6293 223.107 28.3178C223.321 26.2707 218.006 27.0862 216.709 28.0058C216.835 29.5603 219.183 29.3139 220.715 29.7518C213.841 34.0267 204.968 37.5188 201.941 47.5135C203.178 49.8561 208.061 49.1938 206.643 53.7424C213.633 54.339 216.057 58.7233 223.792 58.7233C221.673 65.3353 224.52 67.8531 228.466 69.4843C233.392 66.2932 232.615 57.3987 236.851 53.5398C234.279 48.3071 236.485 42.6584 238.948 36.6047C246.556 33.5888 249.26 38.7722 254.252 39.7301C254.619 42.1275 252.155 41.6787 252.134 43.7148C252.675 45.3624 253.447 46.7691 255.117 47.4533C259.435 47.2672 262.528 42.4286 265.21 43.069C265.779 49.7193 268.281 54.7714 275.248 56.1671C274.871 58.5864 270.59 57.1195 270.333 59.6538C271.822 61.5586 274.871 58.6521 277.596 59.2871C278.653 60.7759 278.85 62.9707 277.312 65.1328C267.613 69.123 251.98 67.1416 247.421 76.3152C250.617 77.191 253.732 71.4876 259.572 72.4783C259.572 74.498 257.689 74.6458 255.615 74.6184C254.783 79.873 261.252 77.1253 261.061 80.82C264.088 80.809 264.52 78.1817 267.262 77.9299C264.323 81.8161 258.724 83.0532 254.509 85.6859C254.865 82.7412 257.848 82.4182 259.616 80.8911C254.941 80.82 242.735 83.7921 244.421 90.0593C240.251 92.7085 234.542 93.8743 233.485 99.6599C232.297 99.1344 232.702 97.3227 231.044 97.1913C231.865 106.491 223.436 111.368 216.884 117.318C217.015 122.096 218.247 125.944 218.247 130.837C213.731 132.189 214.53 124.619 213.359 121.373C210.141 120.629 206.747 120.071 201.969 120.645C200.327 121.932 201.366 123.037 201.312 124.554C195.034 122.742 187.595 122.698 182.888 127.422C179.385 137.931 178.197 151.505 192.538 147.001C193.791 145.971 194.207 144.094 194.754 142.364C196.895 141.456 198.75 140.284 201.607 140.087C203.096 143.853 198.126 147.083 198.192 151.894C199.079 154.182 205.192 152.124 207.289 153.388C206.358 159.042 204.317 165.6 208.608 166.919C212.976 166.333 217.59 164.976 218.466 168.375C221.854 163.503 224.388 162.409 229.292 159.425C230.809 160.493 225.729 164.166 229.024 165.271C231.383 164.034 231.777 160.92 233.628 159.217C236.654 161.976 241.767 162.994 248.921 162.332C250.596 172.77 268.954 169.426 269.583 180.728C267.832 183.307 264.909 184.713 263.398 187.505C265.648 189.234 269.386 182.661 271.805 184.505C271.472 187.209 267.481 186.246 266.814 188.632C269.89 190.915 272.758 186.498 275.199 185.627C281.313 190.148 293.962 189.256 298.013 195.496C296.967 202.842 291.954 206.202 287.646 210.264C285.785 219.049 283.639 227.56 278.16 232.733C270.142 233.357 265.839 237.659 260.913 241.353C260.048 250.281 251.055 264.523 240.36 261.151C238.307 263.231 242.889 264.643 242.15 267.528C240.075 271.02 234.717 271.228 230.535 272.629C228.45 274.857 227.552 278.272 222.527 277.555C222.182 279.542 222.637 280.856 224.06 281.359C220.557 283.177 220.168 288.147 216.233 289.531C215.346 292.662 215.975 294.611 218.98 294.567C213.337 299.57 210.223 307.123 203.945 311.491C205.116 307.709 201.881 307.567 198.898 307.211C201.531 305.268 198.652 297.829 203.934 298.557C204.798 295.197 199.615 293.894 199.85 292.925C200.195 290.057 201.925 292.646 202.724 292.777C205.275 289.816 206.484 282.509 204.902 279.734C211.142 264.917 217.42 246.893 221.432 227.774C211.186 221.605 207.989 209.618 204.957 197.527C204.957 195.485 207.185 195.693 207.661 194.15C204.005 185.288 223.896 175.561 214.295 167.291C208.416 171.752 205.165 165.632 200.852 166.005C201.706 156.497 189.171 158.046 184.322 153.235C175.405 152.978 163.539 151.067 163.993 141.297C158.547 135.123 156.407 126.196 150.2 120.613C148.191 127.909 154.436 133.273 156.467 139.08C148.383 134.559 148.711 126.442 145.564 118.253C135.804 112.38 130.249 100.229 137.178 82.4237C139.193 82.889 139.537 83.1353 140.884 81.5863C139.587 77.0377 136.521 73.9616 130.856 73.0311C132.931 71.1044 131.311 67.9298 129.192 69.8674C127.184 69.6101 130.512 68.8055 130.249 67.875C129.904 66.4683 127.977 66.3753 127.052 65.4448C131.869 57.4589 119.548 58.9586 120.654 52.166C111.458 50.9508 102.432 49.6098 95.7765 46.2764C92.0161 46.8457 92.1803 51.323 88.3653 51.8266C86.4988 50.617 89.4162 47.8474 90.593 47.1905C86.3784 45.034 83.6143 50.8414 82.2513 54.0762C76.5479 58.7616 69.4323 62.0621 62.3879 65.4119C63.7891 62.2318 73.9918 61.2849 74.9004 55.0834C70.2533 53.4194 58.3156 54.0762 59.9631 45.4718C63.0337 42.4286 70.0782 43.4138 69.9687 37.2068C64.6977 39.9436 57.9543 39.0076 57.5 34.5904C62.1142 31.3994 66.5313 35.7399 69.9906 32.6747C68.7153 29.0457 62.0157 29.927 61.9062 25.3018C71.7859 21.2405 82.7659 12.543 92.465 18.6077C103.056 17.4418 114.835 19.9323 123.462 22.2531C124.649 23.3423 122.706 27.0424 125.602 26.6812C127.851 24.9734 125.58 22.2476 125.968 20.1896C127.829 21.4758 131.004 19.0018 132.843 17.9071C135.804 18.5201 128.109 20.4742 127.698 22.691H127.72ZM205.039 80.3547C208.301 78.9808 215.455 79.2326 215.477 82.4182C213.512 81.9749 213.447 83.4308 211.755 83.2447C210.825 85.1769 208.471 91.0117 211.044 91.7013C212.472 87.5579 213.222 82.7029 218.373 82.2704C218.674 84.8321 219.391 87.0543 221.739 87.9356C221.504 85.1769 224.202 85.3083 224.656 83.2502C218.132 82.6591 215.882 78.5211 212.325 75.4449C209.686 76.3864 204.842 79.0848 205.039 80.3547ZM235.089 76.9118L232.183 77.0596C231.175 79.5994 235.237 79.4023 235.089 76.9118ZM219.539 92.5771C223.365 90.3056 231.597 88.4391 232.221 85.4725C228.384 88.253 222.779 89.2164 219.539 92.5771Z" fill="#00783A"/>
<path fill-rule="evenodd" clip-rule="evenodd" d="M212.364 75.4463C215.922 78.5224 218.171 82.6549 224.696 83.2516C224.241 85.3096 221.543 85.1782 221.778 87.9369C219.425 87.0557 218.708 84.8334 218.412 82.2718C213.267 82.7042 212.511 87.5538 211.083 91.7027C208.51 91.0185 210.864 85.1782 211.794 83.2461C213.486 83.4322 213.546 81.9762 215.516 82.4196C215.495 79.2285 208.335 78.9767 205.078 80.3561C204.876 79.0862 209.72 76.3877 212.364 75.4463Z" fill="#00783A"/>
</svg>
